<svg xmlns="http://www.w3.org/2000/svg" viewBox="0 0 289.96 87.88" width="289.96" height="87.88" role="img" aria-labelledby="theLogoTitle">
  <title id="theLogoTitle">New Elevation</title>
  <defs>
    <style>
      .cls-1{fill:#FFFFFF;stroke-width:0}
    </style>
  </defs>
  <path d="M115.51 11.21v15.85h-.11l-12.35-12.18h-.09v11.91h-1.02V10.94h.11l12.35 12.18h.09V11.21h1.02Zm23.19 0v1.22h-8.04v5.59h6.9v1.02h-6.9v6.52h8.04v1.22h-10.06V11.2h10.06Zm11.18 0 4.59 12.93h.09l4.43-12.93h.96l4.34 13h.09l4.61-13h1.02l-5.52 15.58h-1.31l-4.12-12.18h-.11l-4.25 12.18h-1.34l-5.52-15.58h2.05Zm-37.89 26.72v1.22h-8.04v5.59h6.9v1.02h-6.9v6.52h8.04v1.22h-10.06V37.92h10.06Zm11.13 15.58V37.93h2.03v14.36h8.04v1.22h-10.06Zm31.26-15.58v1.22h-8.04v5.59h6.9v1.02h-6.9v6.52h8.04v1.22h-10.06V37.92h10.06Zm11.53 0 5.34 12.82h.09l5.19-12.82h1.16l-6.32 15.58h-1.34l-6.52-15.58h2.4Zm21.88 10.99-1.96 4.59h-1.02l6.59-15.58h1.11l7.26 15.58h-2.16l-2.14-4.59h-7.68Zm3.72-8.5h-.09l-3.21 7.5H195l-3.5-7.5Zm20.45 13.09V39.15h-5.97v-1.22h13.96v1.22h-5.96v14.36h-2.03Zm21.82-15.58v15.58h-2.03V37.93h2.03Zm12.94 5.09c.32-.95.82-1.82 1.5-2.62.68-.79 1.55-1.45 2.6-1.97s2.32-.78 3.79-.78 2.77.26 3.86.79c1.09.53 1.99 1.19 2.71 1.99.71.8 1.24 1.67 1.58 2.62.34.94.51 1.83.51 2.66 0 .55-.08 1.13-.23 1.74s-.39 1.21-.69 1.81c-.3.6-.7 1.17-1.17 1.71s-1.04 1.02-1.68 1.44c-.65.42-1.37.75-2.18.99s-1.71.37-2.71.37c-1.47 0-2.73-.26-3.79-.79-1.05-.53-1.92-1.19-2.6-1.99-.68-.8-1.18-1.67-1.5-2.62-.32-.94-.48-1.83-.48-2.66s.16-1.74.48-2.69Zm2.19 5.56c.32.87.76 1.61 1.31 2.24.56.62 1.21 1.11 1.97 1.46.76.35 1.58.52 2.47.52s1.7-.17 2.48-.52 1.46-.83 2.05-1.46c.59-.62 1.05-1.37 1.39-2.24.34-.87.51-1.82.51-2.86s-.17-1.99-.51-2.86c-.34-.87-.81-1.61-1.39-2.24-.59-.62-1.27-1.11-2.05-1.46s-1.61-.52-2.48-.52-1.71.17-2.47.52c-.76.35-1.41.83-1.97 1.46-.56.62-.99 1.37-1.31 2.24-.32.87-.48 1.82-.48 2.86s.16 1.99.48 2.86Zm39.52-10.65v15.85h-.11L275.97 41.6h-.09v11.91h-1.02V37.66h.11l12.35 12.18h.09V37.93h1.02ZM20.89 66.77a693.393 693.393 0 0 0 46.09-46.09 695.798 695.798 0 0 0-46.09 46.09Zm3.34-39.57h.09L35.7 39.33h.11V23.54h-1.02V35.4h-.09L23.32 23.28h-.11v15.78h1.02V27.2zM54.3 64.62h10.25V63.4h-8.23v-6.5h7.1v-1.02h-7.1v-5.57h8.23v-1.22H54.3v15.53z" class="cls-1"/>
  <path d="M43.94 0C19.67 0 0 19.67 0 43.94c0 24.27 19.67 43.94 43.94 43.94 24.27 0 43.94-19.67 43.94-43.94C87.88 19.67 68.2 0 43.94 0Zm30.03 73.97c-7.69 7.69-18.3 12.44-30.03 12.44S21.6 81.66 13.91 73.97C6.22 66.28 1.47 55.67 1.47 43.94S6.22 21.6 13.91 13.91C21.6 6.22 32.21 1.47 43.94 1.47s22.34 4.75 30.03 12.44c7.69 7.69 12.44 18.3 12.44 30.03s-4.75 22.34-12.44 30.03Zm32.04-9.56h.57l3.91 9.26h-.7l-1.29-3.05h-4.42l-1.29 3.05h-.72l3.94-9.26Zm2.31 5.66-2.02-4.85-2.06 4.85h4.08Zm12.63-5.06h-3.39v8.66h-.67v-8.66h-3.39v-.6h7.44v.6Zm1.95 8.78c-1.44 0-2.16-1-2.16-3v-3.91h.65v3.82c0 1.67.57 2.5 1.71 2.5.29 0 .56-.05.83-.15a2.989 2.989 0 0 0 1.38-1.06c.18-.25.32-.53.42-.83v-4.28h.65v5.87c0 .22.09.33.27.33v.59s-.08.01-.12.01h-.08c-.17 0-.33-.05-.46-.16s-.2-.25-.2-.44v-1.02a3.27 3.27 0 0 1-2.9 1.74Zm8.76-6.32c-.61.02-1.14.2-1.6.54-.46.34-.78.82-.96 1.42v4.24h-.65v-6.78h.63v1.67c.23-.48.54-.87.93-1.17s.8-.47 1.25-.52c.09 0 .17-.01.24-.01h.17v.61Zm6.77 6.19h-.65v-3.78c0-.88-.12-1.52-.37-1.92-.25-.4-.64-.6-1.18-.6-.29 0-.57.05-.85.16s-.54.25-.79.44c-.24.19-.46.42-.64.67-.18.26-.32.53-.4.83v4.2h-.65v-6.78h.61v1.62c.14-.26.31-.5.51-.71.2-.21.43-.39.69-.55.26-.15.53-.27.82-.35.29-.08.58-.12.89-.12.74 0 1.26.26 1.56.78.3.52.46 1.26.46 2.22v3.9Zm5.14.13c-.53 0-1.03-.14-1.49-.42-.46-.28-.82-.63-1.08-1.07v1.36h-.6v-9.52h.65v4.21c.32-.47.7-.85 1.14-1.15.44-.29.95-.44 1.52-.44.48 0 .91.1 1.3.31s.71.47.98.81c.27.33.47.71.61 1.13.14.42.21.85.21 1.28a3.683 3.683 0 0 1-.93 2.45c-.29.32-.63.57-1.03.76s-.82.29-1.28.29Zm-.13-.58c.4 0 .76-.08 1.09-.25.33-.17.61-.38.85-.66.24-.27.43-.58.56-.93s.2-.7.2-1.07-.06-.75-.19-1.1c-.13-.35-.3-.67-.54-.94s-.5-.49-.82-.66-.67-.25-1.05-.25c-.29 0-.56.05-.81.15s-.48.23-.7.4-.4.36-.57.57c-.17.22-.31.44-.42.68v2.24c.03.25.12.49.29.71s.36.41.59.57c.23.16.48.29.75.38s.52.14.76.14Zm7.82.58c-.48 0-.92-.09-1.33-.28-.41-.19-.76-.44-1.06-.77s-.53-.7-.7-1.13c-.17-.42-.25-.88-.25-1.37s.08-.93.25-1.35c.17-.42.4-.79.7-1.11a3.166 3.166 0 0 1 2.36-1.02c.47 0 .92.09 1.33.28a3.348 3.348 0 0 1 1.75 1.87c.17.42.25.87.25 1.34v.16c0 .06 0 .11-.01.12h-5.94c.03.39.12.75.27 1.09.16.33.35.62.59.87.24.24.51.43.83.57.31.14.65.21 1 .21.23 0 .46-.03.69-.1a2.548 2.548 0 0 0 1.15-.68c.15-.16.27-.34.36-.53l.57.16c-.1.24-.24.47-.42.67-.19.2-.4.38-.65.53-.25.15-.52.26-.81.35-.3.08-.6.12-.91.12Zm2.66-3.78c-.03-.4-.12-.76-.27-1.1-.15-.33-.35-.61-.59-.85s-.51-.43-.83-.56a2.587 2.587 0 0 0-2.83.56c-.24.24-.43.53-.57.86s-.23.7-.25 1.09h5.35Zm5.27-2.54c-.61.02-1.14.2-1.6.54-.46.34-.78.82-.96 1.42v4.24h-.65v-6.78h.63v1.67c.23-.48.54-.87.93-1.17s.8-.47 1.25-.52c.09 0 .17-.01.24-.01h.17v.61Zm4.44 0c-.61.02-1.14.2-1.6.54-.46.34-.78.82-.96 1.42v4.24h-.65v-6.78h.63v1.67c.23-.48.54-.87.93-1.17s.8-.47 1.25-.52c.09 0 .17-.01.24-.01h.17v.61Zm1.7 8.49s.11.01.2.01.17 0 .24-.01c.07 0 .15-.03.21-.07.05-.03.1-.06.14-.11.04-.05.1-.15.18-.29s.18-.37.3-.65c.12-.29.29-.68.5-1.17l-3.02-6.78h.68l2.7 6.14 2.52-6.14h.64l-3.72 8.92c-.1.24-.25.43-.46.57s-.5.2-.87.2h-.11s-.08 0-.12-.01v-.6Zm15.16-10.01c-.6-.67-1.45-1-2.54-1-.9 0-1.56.17-1.98.51-.41.34-.62.81-.62 1.39 0 .29.05.54.16.74s.27.36.49.5.5.26.84.35.75.2 1.23.3c.5.1.95.22 1.35.35.4.13.75.29 1.03.48s.5.43.65.7c.15.28.23.62.23 1.03s-.08.76-.24 1.07c-.16.3-.39.56-.68.76s-.64.36-1.04.46-.85.16-1.35.16c-1.44 0-2.66-.46-3.66-1.38l.35-.53c.39.41.87.73 1.43.97.56.24 1.2.36 1.9.36.81 0 1.44-.15 1.9-.44.46-.3.68-.74.68-1.34 0-.3-.06-.56-.18-.78-.12-.21-.3-.4-.54-.55s-.54-.29-.91-.4c-.36-.11-.79-.22-1.28-.33-.5-.1-.93-.22-1.31-.33s-.7-.26-.95-.44a1.76 1.76 0 0 1-.58-.64c-.13-.25-.2-.57-.2-.95 0-.42.08-.79.24-1.11.16-.32.38-.59.67-.81.29-.22.63-.39 1.03-.5.4-.11.84-.17 1.33-.17.6 0 1.13.09 1.6.27.47.18.9.45 1.28.82l-.34.52Zm5.15 7.84c-.48 0-.92-.09-1.32-.28-.4-.19-.75-.44-1.05-.76-.3-.32-.53-.7-.69-1.12s-.25-.87-.25-1.34.08-.93.25-1.36.4-.8.7-1.12c.3-.32.65-.58 1.05-.76.4-.19.84-.28 1.31-.28s.9.09 1.3.28c.4.19.75.44 1.05.76a3.592 3.592 0 0 1 .95 2.48c0 .48-.08.92-.25 1.34-.17.43-.4.8-.7 1.12-.3.32-.65.58-1.05.76-.4.19-.84.28-1.31.28Zm-2.66-3.48a3.027 3.027 0 0 0 .78 2.05c.24.26.52.47.84.62a2.423 2.423 0 0 0 2.06 0c.32-.15.6-.36.85-.63s.43-.58.57-.93c.14-.35.21-.73.21-1.14s-.07-.78-.21-1.13c-.14-.35-.33-.66-.57-.93-.24-.26-.52-.48-.84-.63-.32-.16-.66-.24-1.02-.24s-.71.08-1.03.24c-.32.16-.6.37-.84.64s-.43.58-.57.94c-.14.36-.21.74-.21 1.14Zm7.59-6.16h.66v8.17c0 .25.07.45.22.6.14.15.34.22.59.22.1 0 .21-.01.35-.03s.26-.05.37-.1l.13.52c-.15.06-.33.11-.55.15s-.4.06-.56.06c-.37 0-.66-.11-.88-.33s-.33-.52-.33-.89v-8.37Zm5.42 9.64c-1.44 0-2.16-1-2.16-3v-3.91h.65v3.82c0 1.67.57 2.5 1.71 2.5.29 0 .56-.05.83-.15a2.989 2.989 0 0 0 1.38-1.06c.18-.25.32-.53.42-.83v-4.28h.65v5.87c0 .22.09.33.27.33v.59s-.08.01-.12.01h-.08c-.17 0-.33-.05-.46-.16s-.2-.25-.2-.44v-1.02a3.27 3.27 0 0 1-2.9 1.74Zm8.58-.45-.18.1c-.08.05-.19.09-.31.14-.13.04-.27.08-.42.12-.16.03-.33.05-.51.05s-.35-.03-.51-.08c-.16-.05-.3-.13-.42-.23s-.22-.23-.29-.38-.1-.32-.1-.52v-5.11h-.95v-.53h.95v-2.32h.65v2.32h1.58v.53h-1.58v4.95c0 .25.09.44.26.57s.37.19.59.19c.27 0 .5-.05.7-.14.2-.09.31-.15.36-.18l.2.52Zm1.14-7.99v-1.2h.65v1.2h-.65Zm0 8.31v-6.78h.65v6.78h-.65Zm5.54.13c-.48 0-.92-.09-1.32-.28-.4-.19-.75-.44-1.05-.76-.3-.32-.53-.7-.69-1.12s-.25-.87-.25-1.34.08-.93.25-1.36.4-.8.7-1.12c.3-.32.65-.58 1.05-.76.4-.19.84-.28 1.31-.28s.9.09 1.3.28c.4.19.75.44 1.05.76a3.592 3.592 0 0 1 .95 2.48c0 .48-.08.92-.25 1.34-.17.43-.4.8-.7 1.12-.3.32-.65.58-1.05.76-.4.19-.84.28-1.31.28Zm-2.66-3.48a3.027 3.027 0 0 0 .78 2.05c.24.26.52.47.84.62a2.423 2.423 0 0 0 2.06 0c.32-.15.6-.36.85-.63s.43-.58.57-.93c.14-.35.21-.73.21-1.14s-.07-.78-.21-1.13c-.14-.35-.33-.66-.57-.93-.24-.26-.52-.48-.84-.63-.32-.16-.66-.24-1.02-.24s-.71.08-1.03.24c-.32.16-.6.37-.84.64s-.43.58-.57.94c-.14.36-.21.74-.21 1.14Zm13.08 3.35h-.65v-3.78c0-.88-.12-1.52-.37-1.92-.25-.4-.64-.6-1.18-.6-.29 0-.57.05-.85.16s-.54.25-.79.44c-.24.19-.46.42-.64.67-.18.26-.32.53-.4.83v4.2h-.65v-6.78h.61v1.62c.14-.26.31-.5.51-.71.2-.21.43-.39.69-.55.26-.15.53-.27.82-.35.29-.08.58-.12.89-.12.74 0 1.26.26 1.56.78.3.52.46 1.26.46 2.22v3.9Zm4.12.13c-.52 0-1.02-.09-1.5-.26s-.9-.43-1.25-.78l.33-.44c.37.33.74.57 1.13.73.39.16.82.24 1.29.24.59 0 1.07-.12 1.43-.37.36-.25.54-.59.54-1.04 0-.21-.05-.38-.14-.53-.09-.14-.23-.26-.41-.36-.18-.1-.41-.19-.68-.27-.27-.08-.58-.16-.94-.25-.38-.09-.72-.17-1-.26s-.51-.19-.7-.31-.32-.27-.41-.44c-.09-.17-.14-.4-.14-.67 0-.34.06-.63.2-.89.13-.25.31-.46.54-.63.23-.17.5-.29.79-.37.3-.08.62-.12.96-.12.53 0 1 .09 1.41.27.41.18.73.41.95.68l-.36.35c-.23-.26-.52-.46-.88-.59-.36-.13-.75-.2-1.15-.2-.25 0-.49.03-.71.08-.22.05-.42.13-.58.25-.17.11-.3.26-.39.44-.1.18-.14.39-.14.63 0 .2.03.36.1.48s.17.23.31.31.33.16.55.23.5.14.81.21c.43.1.8.2 1.13.3s.61.21.83.35c.22.14.39.3.51.5.12.19.18.43.18.73 0 .61-.24 1.09-.71 1.45s-1.11.54-1.9.54Zm7.02-4.82c0-.56.1-1.11.29-1.66.2-.55.48-1.04.85-1.48.37-.43.83-.79 1.38-1.06.54-.27 1.16-.41 1.86-.41.83 0 1.53.19 2.11.57s1.02.86 1.3 1.45l-.55.31c-.17-.32-.36-.59-.58-.81s-.46-.39-.72-.53c-.26-.13-.52-.23-.8-.29s-.55-.09-.82-.09c-.59 0-1.11.12-1.56.36-.45.24-.83.55-1.15.93-.31.38-.55.81-.71 1.3s-.24.97-.24 1.45c0 .55.1 1.07.29 1.56.19.5.45.93.78 1.31s.72.68 1.17.91.94.34 1.46.34c.28 0 .57-.04.86-.1.3-.07.58-.18.85-.33.27-.15.52-.34.76-.57.24-.23.43-.5.59-.82l.57.27c-.16.35-.37.66-.64.93s-.57.5-.9.68-.68.32-1.05.41c-.37.09-.73.14-1.09.14-.63 0-1.21-.14-1.74-.42-.53-.28-.98-.64-1.36-1.09-.38-.45-.68-.96-.89-1.53s-.32-1.15-.32-1.74Zm12.28 4.82c-.48 0-.92-.09-1.32-.28-.4-.19-.75-.44-1.05-.76-.3-.32-.53-.7-.69-1.12s-.25-.87-.25-1.34.08-.93.25-1.36.4-.8.7-1.12c.3-.32.65-.58 1.05-.76.4-.19.84-.28 1.31-.28s.9.09 1.3.28c.4.19.75.44 1.05.76a3.592 3.592 0 0 1 .95 2.48c0 .48-.08.92-.25 1.34-.17.43-.4.8-.7 1.12-.3.32-.65.58-1.05.76-.4.19-.84.28-1.31.28Zm-2.66-3.48a3.027 3.027 0 0 0 .78 2.05c.24.26.52.47.84.62a2.423 2.423 0 0 0 2.06 0c.32-.15.6-.36.85-.63s.43-.58.57-.93c.14-.35.21-.73.21-1.14s-.07-.78-.21-1.13c-.14-.35-.33-.66-.57-.93-.24-.26-.52-.48-.84-.63-.32-.16-.66-.24-1.02-.24s-.71.08-1.03.24c-.32.16-.6.37-.84.64s-.43.58-.57.94c-.14.36-.21.74-.21 1.14Zm17.5 3.35h-.65v-3.78c0-.86-.13-1.5-.4-1.9-.26-.41-.67-.61-1.22-.61-.28 0-.54.05-.79.16s-.48.25-.69.44c-.21.19-.39.41-.54.67-.15.26-.27.54-.36.85v4.18h-.65v-3.78c0-.87-.13-1.51-.39-1.91-.26-.4-.66-.61-1.21-.61-.28 0-.54.05-.79.15-.25.1-.48.24-.68.43-.21.19-.39.41-.55.66-.16.26-.28.54-.37.85v4.2h-.65v-6.78h.61v1.62c.28-.55.64-.97 1.09-1.28.45-.3.95-.46 1.5-.46s1.04.17 1.39.51.57.78.64 1.33c.64-1.23 1.53-1.84 2.66-1.84.74 0 1.27.26 1.58.79.32.53.48 1.26.48 2.21v3.9Zm5.28.13c-.58 0-1.1-.15-1.56-.46a3.7 3.7 0 0 1-1.1-1.13v4.24h-.65v-9.56h.6v1.36c.28-.43.65-.79 1.1-1.06s.95-.41 1.47-.41c.47 0 .9.1 1.3.3.4.2.74.46 1.03.79.29.33.51.7.67 1.13s.24.86.24 1.3c0 .47-.07.92-.22 1.34s-.36.8-.63 1.12c-.27.32-.6.58-.98.76-.38.19-.8.28-1.26.28Zm-.16-.58c.39 0 .75-.08 1.07-.25.32-.17.6-.38.82-.66.23-.27.4-.59.52-.94s.18-.71.18-1.08c0-.39-.07-.76-.21-1.12-.14-.35-.33-.66-.58-.93-.25-.27-.54-.48-.87-.65-.33-.16-.68-.24-1.06-.24-.24 0-.49.05-.75.15a3.004 3.004 0 0 0-1.35.98c-.17.22-.26.45-.29.69v2.23c.11.25.26.49.43.7.17.22.37.41.59.57a2.515 2.515 0 0 0 1.48.52Zm6.5.58c-.31 0-.6-.05-.87-.16s-.51-.26-.71-.44-.36-.41-.48-.67c-.11-.26-.17-.53-.17-.83s.07-.57.21-.81c.14-.24.33-.45.58-.63.25-.18.54-.32.89-.42.35-.1.73-.15 1.15-.15.37 0 .73.03 1.1.1s.7.15 1 .27v-.67c0-.64-.18-1.15-.55-1.53-.37-.38-.86-.57-1.49-.57-.33 0-.68.07-1.05.21-.37.14-.75.34-1.13.6l-.25-.44c.87-.59 1.69-.89 2.48-.89s1.46.24 1.93.71.7 1.13.7 1.96v3.31c0 .22.09.33.29.33v.59s-.09.02-.14.02h-.12c-.17 0-.31-.06-.42-.18s-.17-.26-.18-.42v-.56c-.31.41-.71.72-1.2.94s-1.01.33-1.58.33Zm.12-.52c.5 0 .97-.1 1.39-.29s.75-.44.97-.76c.14-.18.21-.36.21-.52v-1.2c-.31-.12-.64-.21-.98-.27-.34-.06-.69-.09-1.06-.09-.34 0-.65.04-.93.11s-.52.18-.72.31c-.2.13-.35.29-.46.48-.11.19-.16.39-.16.62s.04.44.13.64.21.37.37.51.34.26.55.34c.21.08.44.12.68.12Zm10.75.39h-.65v-3.78c0-.88-.12-1.52-.37-1.92-.25-.4-.64-.6-1.18-.6-.29 0-.57.05-.85.16s-.54.25-.79.44c-.24.19-.46.42-.64.67-.18.26-.32.53-.4.83v4.2h-.65v-6.78h.61v1.62c.14-.26.31-.5.51-.71.2-.21.43-.39.69-.55.26-.15.53-.27.82-.35.29-.08.58-.12.89-.12.74 0 1.26.26 1.56.78.3.52.46 1.26.46 2.22v3.9Zm2.26 2.3s.11.01.2.01.17 0 .24-.01c.07 0 .15-.03.21-.07.05-.03.1-.06.14-.11.04-.05.1-.15.18-.29s.18-.37.3-.65c.12-.29.29-.68.5-1.17l-3.02-6.78h.68l2.7 6.14 2.52-6.14h.64l-3.72 8.92c-.1.24-.25.43-.46.57s-.5.2-.87.2h-.11s-.08 0-.12-.01v-.6ZM115.51 11.21v15.85h-.11l-12.35-12.18h-.09v11.91h-1.02V10.94h.11l12.35 12.18h.09V11.21h1.02Zm23.19 0v1.22h-8.04v5.59h6.9v1.02h-6.9v6.52h8.04v1.22h-10.06V11.2h10.06Zm11.18 0 4.59 12.93h.09l4.43-12.93h.96l4.34 13h.09l4.61-13h1.02l-5.52 15.58h-1.31l-4.12-12.18h-.11l-4.25 12.18h-1.34l-5.52-15.58h2.05Zm-37.89 26.72v1.22h-8.04v5.59h6.9v1.02h-6.9v6.52h8.04v1.22h-10.06V37.92h10.06Zm11.13 15.58V37.93h2.03v14.36h8.04v1.22h-10.06Zm31.26-15.58v1.22h-8.04v5.59h6.9v1.02h-6.9v6.52h8.04v1.22h-10.06V37.92h10.06Zm11.53 0 5.34 12.82h.09l5.19-12.82h1.16l-6.32 15.58h-1.34l-6.52-15.58h2.4Zm21.88 10.99-1.96 4.59h-1.02l6.59-15.58h1.11l7.26 15.58h-2.16l-2.14-4.59h-7.68Zm3.72-8.5h-.09l-3.21 7.5H195l-3.5-7.5Zm20.45 13.09V39.15h-5.97v-1.22h13.96v1.22h-5.96v14.36h-2.03Zm21.82-15.58v15.58h-2.03V37.93h2.03Zm12.94 5.09c.32-.95.82-1.82 1.5-2.62.68-.79 1.55-1.45 2.6-1.97s2.32-.78 3.79-.78 2.77.26 3.86.79c1.09.53 1.99 1.19 2.71 1.99.71.8 1.24 1.67 1.58 2.62.34.94.51 1.83.51 2.66 0 .55-.08 1.13-.23 1.74s-.39 1.21-.69 1.81c-.3.6-.7 1.17-1.17 1.71s-1.04 1.02-1.68 1.44c-.65.42-1.37.75-2.18.99s-1.71.37-2.71.37c-1.47 0-2.73-.26-3.79-.79-1.05-.53-1.92-1.19-2.6-1.99-.68-.8-1.18-1.67-1.5-2.62-.32-.94-.48-1.83-.48-2.66s.16-1.74.48-2.69Zm2.19 5.56c.32.87.76 1.61 1.31 2.24.56.62 1.21 1.11 1.97 1.46.76.35 1.58.52 2.47.52s1.7-.17 2.48-.52 1.46-.83 2.05-1.46c.59-.62 1.05-1.37 1.39-2.24.34-.87.51-1.82.51-2.86s-.17-1.99-.51-2.86c-.34-.87-.81-1.61-1.39-2.24-.59-.62-1.27-1.11-2.05-1.46s-1.61-.52-2.48-.52-1.71.17-2.47.52c-.76.35-1.41.83-1.97 1.46-.56.62-.99 1.37-1.31 2.24-.32.87-.48 1.82-.48 2.86s.16 1.99.48 2.86Zm39.52-10.65v15.85h-.11L275.97 41.6h-.09v11.91h-1.02V37.66h.11l12.35 12.18h.09V37.93h1.02Z" class="cls-1"/>
  <path d="M20.89 66.77a693.393 693.393 0 0 0 46.09-46.09 695.798 695.798 0 0 0-46.09 46.09Zm3.34-39.57h.09L35.7 39.33h.11V23.54h-1.02V35.4h-.09L23.32 23.28h-.11v15.78h1.02V27.2zM54.3 64.62h10.25V63.4h-8.23v-6.5h7.1v-1.02h-7.1v-5.57h8.23v-1.22H54.3v15.53z" class="cls-1"/>
  <path d="M43.94 0C19.67 0 0 19.67 0 43.94c0 24.27 19.67 43.94 43.94 43.94 24.27 0 43.94-19.67 43.94-43.94C87.88 19.67 68.2 0 43.94 0Zm30.03 73.97c-7.69 7.69-18.3 12.44-30.03 12.44S21.6 81.66 13.91 73.97C6.22 66.28 1.47 55.67 1.47 43.94S6.22 21.6 13.91 13.91C21.6 6.22 32.21 1.47 43.94 1.47s22.34 4.75 30.03 12.44c7.69 7.69 12.44 18.3 12.44 30.03s-4.75 22.34-12.44 30.03Zm32.04-9.56h.57l3.91 9.26h-.7l-1.29-3.05h-4.42l-1.29 3.05h-.72l3.94-9.26Zm2.31 5.66-2.02-4.85-2.06 4.85h4.08Zm12.63-5.06h-3.39v8.66h-.67v-8.66h-3.39v-.6h7.44v.6Zm1.95 8.78c-1.44 0-2.16-1-2.16-3v-3.91h.65v3.82c0 1.67.57 2.5 1.71 2.5.29 0 .56-.05.83-.15a2.989 2.989 0 0 0 1.38-1.06c.18-.25.32-.53.42-.83v-4.28h.65v5.87c0 .22.09.33.27.33v.59s-.08.01-.12.01h-.08c-.17 0-.33-.05-.46-.16s-.2-.25-.2-.44v-1.02a3.27 3.27 0 0 1-2.9 1.74Zm8.76-6.32c-.61.02-1.14.2-1.6.54-.46.34-.78.82-.96 1.42v4.24h-.65v-6.78h.63v1.67c.23-.48.54-.87.93-1.17s.8-.47 1.25-.52c.09 0 .17-.01.24-.01h.17v.61Zm6.77 6.19h-.65v-3.78c0-.88-.12-1.52-.37-1.92-.25-.4-.64-.6-1.18-.6-.29 0-.57.05-.85.16s-.54.25-.79.44c-.24.19-.46.42-.64.67-.18.26-.32.53-.4.83v4.2h-.65v-6.78h.61v1.62c.14-.26.31-.5.51-.71.2-.21.43-.39.69-.55.26-.15.53-.27.82-.35.29-.08.58-.12.89-.12.74 0 1.26.26 1.56.78.3.52.46 1.26.46 2.22v3.9Zm5.14.13c-.53 0-1.03-.14-1.49-.42-.46-.28-.82-.63-1.08-1.07v1.36h-.6v-9.52h.65v4.21c.32-.47.7-.85 1.14-1.15.44-.29.95-.44 1.52-.44.48 0 .91.1 1.3.31s.71.47.98.81c.27.33.47.71.61 1.13.14.42.21.85.21 1.28a3.683 3.683 0 0 1-.93 2.45c-.29.32-.63.57-1.03.76s-.82.29-1.28.29Zm-.13-.58c.4 0 .76-.08 1.09-.25.33-.17.61-.38.85-.66.24-.27.43-.58.56-.93s.2-.7.2-1.07-.06-.75-.19-1.1c-.13-.35-.3-.67-.54-.94s-.5-.49-.82-.66-.67-.25-1.05-.25c-.29 0-.56.05-.81.15s-.48.23-.7.4-.4.36-.57.57c-.17.22-.31.44-.42.68v2.24c.03.25.12.49.29.71s.36.41.59.57c.23.16.48.29.75.38s.52.14.76.14Zm7.82.58c-.48 0-.92-.09-1.33-.28-.41-.19-.76-.44-1.06-.77s-.53-.7-.70-1.13c-.17-.42-.25-.88-.25-1.37s.08-.93.25-1.35c.17-.42.4-.79.7-1.11a3.166 3.166 0 0 1 2.36-1.02c.47 0 .92.09 1.33.28a3.348 3.348 0 0 1 1.75 1.87c.17.42.25.87.25 1.34v.16c0 .06 0 .11-.01.12h-5.94c.03.39.12.75.27 1.09.16.33.35.62.59.87.24.24.51.43.83.57.31.14.65.21 1 .21.23 0 .46-.03.69-.1a2.548 2.548 0 0 0 1.15-.68c.15-.16.27-.34.36-.53l.57.16c-.1.24-.24.47-.42.67-.19.2-.4.38-.65.53-.25.15-.52.26-.81.35-.3.08-.6.12-.91.12Zm2.66-3.78c-.03-.4-.12-.76-.27-1.1-.15-.33-.35-.61-.59-.85s-.51-.43-.83-.56a2.587 2.587 0 0 0-2.83.56c-.24.24-.43.53-.57.86s-.23.7-.25 1.09h5.35Zm5.27-2.54c-.61.02-1.14.2-1.6.54-.46.34-.78.82-.96 1.42v4.24h-.65v-6.78h.63v1.67c.23-.48.54-.87.93-1.17s.8-.47 1.25-.52c.09 0 .17-.01.24-.01h.17v.61Zm4.44 0c-.61.02-1.14.2-1.6.54-.46.34-.78.82-.96 1.42v4.24h-.65v-6.78h.63v1.67c.23-.48.54-.87.93-1.17s.8-.47 1.25-.52c.09 0 .17-.01.24-.01h.17v.61Zm1.7 8.49s.11.01.2.01.17 0 .24-.01c.07 0 .15-.03.21-.07.05-.03.1-.06.14-.11.04-.05.1-.15.18-.29s.18-.37.3-.65c.12-.29.29-.68.5-1.17l-3.02-6.78h.68l2.7 6.14 2.52-6.14h.64l-3.72 8.92c-.1.24-.25.43-.46.57s-.5.2-.87.2h-.11s-.08 0-.12-.01v-.6Z" class="cls-1"/>
</svg>